{"title":"Just Before I Go 2014 DVDRip XviD AC3-RARBG","uid":11915245,"size":1305188641,"categoryP":"video","categoryS":"movies","magnet":"?xt=urn:btih:f604ed57a93ea84206006d00eb670a91368de404&amp;dn=Just+Before+I+Go+2014+DVDRip+XviD+AC3-RARBG&amp;tr=udp%3A%2F%2Ftracker.openbittorrent.com%3A80&amp;tr=udp%3A%2F%2Fopen.demonii.com%3A1337&amp;tr=udp%3A%2F%2Ftracker.coppersurfer.tk%3A6969&amp;tr=udp%3A%2F%2Fexodus.desync.com%3A6969","seeders":10,"leechers":2,"uploader":"OvoJeKraj","files":4,"time":1431524273,"description":"Enjoy and seed! Thanks!\n\nFormat : AVI\nFormat/Info : Audio Video Interleave\nFile size : 1.21 GiB\nDuration : 1h 30mn\nOverall bit rate : 1 916 Kbps\nMovie name : RARBG.COM - Just.Before.I.Go.2014.DVDRip.XviD.AC3-RARBG\nWriting library : VirtualDub build 35491/release\nComment : RARBG.COM - Just.Before.I.Go.2014.DVDRip.XviD.AC3-RARBG\n\nVideo\nID : 0\nFormat : MPEG-4 Visual\nFormat profile : Simple@L5\nFormat settings, BVOP : No\nFormat settings, QPel : No\nFormat settings, GMC : No warppoints\nFormat settings, Matrix : Default (H.263)\nCodec ID : XVID\nCodec ID/Hint : XviD\nDuration : 1h 30mn\nBit rate : 1 459 Kbps\nWidth : 704 pixels\nHeight : 288 pixels\nDisplay aspect ratio : 2.40:1\nFrame rate : 23.976 fps\nColor space : YUV\nChroma subsampling : 4:2:0\nBit depth : 8 bits\nScan type : Progressive\nCompression mode : Lossy\nBits/(Pixel*Frame) : 0.300\nStream size : 947 MiB (76%)\nWriting library : Lavc56.34.100\n\nAudio\nID : 1\nFormat : AC-3\nFormat/Info : Audio Coding 3\nMode extension : CM (complete main)\nFormat settings, Endianness : Big\nCodec ID : 2000\nDuration : 1h 30mn\nBit rate mode : Constant\nBit rate : 448 Kbps\nChannel(s) : 6 channels\nChannel positions : Front: L C R, Side: L R, LFE\nSampling rate : 48.0 KHz\nBit depth : 16 bits\nCompression mode : Lossy\nStream size : 291 MiB (23%)\nAlignment : Aligned on interleaves\nInterleave, duration : 42 ms (1.00 video frame)\nInterleave, preload duration : 512 ms","torrent":{"xt":"urn:btih:f604ed57a93ea84206006d00eb670a91368de404","amp;dn":"Just+Before+I+Go+2014+DVDRip+XviD+AC3-RARBG","amp;tr":["udp%3A%2F%2Ftracker.openbittorrent.com%3A80","udp%3A%2F%2Fopen.demonii.com%3A1337","udp%3A%2F%2Ftracker.coppersurfer.tk%3A6969","udp%3A%2F%2Fexodus.desync.com%3A6969"],"infoHash":"f604ed57a93ea84206006d00eb670a91368de404","infoHashBuffer":{"type":"Buffer","data":[246,4,237,87,169,62,168,66,6,0,109,0,235,103,10,145,54,141,228,4]},"announce":[],"urlList":[]}}